# xmcd
#
# Track frame offsets:
#	150
#	6852
#	17757
#	30540
#	39100
#	48467
#	56782
#	66110
#	75912
#	85172
#	93822
#	104042
#	118290
#	124290
#	134457
#	144962
#	155530
#	170350
#	182830
#	207607
#	218630
#	234007
#	244860
#	255910
#	269065
#	280150
#	302502
#	319095
#
# Disc length: 4503 seconds
# Revision: 2
# Processed by: cddbd v1.5.2PL0 Copyright (c) Steve Scherf et al.
# Submitted via: dBpowerAMP V12.0
#
DISCID=8211951c
DTITLE=The Dillards - Back Porch Bluegrass - Live!!! Almost!!!
DYEAR=2003
DGENRE=Country: Bluegrass
TTITLE0=Old Joseph
TTITLE1=Somebody Touched Me
TTITLE2=Polly Vaughn
TTITLE3=Banjo in the Hollow
TTITLE4=Dooley
TTITLE5=Lonesome Indian
TTITLE6=Ground Hog
TTITLE7=Old Home Place
TTITLE8=Hickory Hollow
TTITLE9=Old Man at the Mill
TTITLE10=Doug's Tune
TTITLE11=Rainin' Here This Mornin'
TTITLE12=Cold Trailin'
TTITLE13=Reuben's Train
TTITLE14=Deulin' Banjo (Hootin' Banjo)
TTITLE15=Black-Eyed Susie
TTITLE16=(I'll) Never See My Home Again
TTITLE17=There Is a Time
TTITLE18=Old Blue
TTITLE19=Sinkin' Creek
TTITLE20=The Whole World Round
TTITLE21=Liberty!
TTITLE22=Dixie Breakdown
TTITLE23=Walkin' Down the Line
TTITLE24=Jody's Tune
TTITLE25=Pretty Polly
TTITLE26=Taters in Sandy Lane/Gimme Chaw T'Baccer
TTITLE27=Buckin' Mule
EXTD=
EXTT0=
EXTT1=
EXTT2=
EXTT3=
EXTT4=
EXTT5=
EXTT6=
EXTT7=
EXTT8=
EXTT9=
EXTT10=
EXTT11=
EXTT12=
EXTT13=
EXTT14=
EXTT15=
EXTT16=
EXTT17=
EXTT18=
EXTT19=
EXTT20=
EXTT21=
EXTT22=
EXTT23=
EXTT24=
EXTT25=
EXTT26=
EXTT27=
PLAYORDER=
